<svg xmlns="http://www.w3.org/2000/svg" width="24" height="24" viewBox="0 0 24 24" fill="none">
  <path d="M14.0966 6.21684C14.0009 6.08647 13.8606 6.00797 13.7109 6.00067C13.5612 5.99269 13.4156 6.05654 13.3093 6.17694C13.2037 6.29667 13.1473 6.46163 13.1537 6.63124C13.1608 6.80085 13.2301 6.95983 13.3451 7.06824L17.1794 11.4177H4.50666C4.22251 11.4343 4 11.7003 4 12.0229C4 12.3449 4.22251 12.6109 4.50666 12.6282H17.1794L13.3393 16.9717C13.1385 17.2098 13.1385 17.5849 13.3393 17.8231C13.4385 17.9361 13.5741 18 13.715 18C13.8559 18 13.9909 17.9361 14.0907 17.8231L18.8403 12.4419L18.8397 12.4426C18.9419 12.3309 19 12.1772 19 12.0169C19 11.8559 18.9419 11.7023 18.8397 11.5912L14.0966 6.21684Z" fill="white"/>
</svg>
