<svg width="20" height="21" viewBox="0 0 20 21" fill="none"
  xmlns="http://www.w3.org/2000/svg">
  <path d="M18.8958 0.92749H1.10417C0.494167 0.92749 0 1.42166 0 2.03166V19.8242C0 20.4333 0.494167 20.9275 1.10417 20.9275H10.6833V13.1825H8.07667V10.1642H10.6833V7.93832C10.6833 5.35499 12.2608 3.94832 14.5658 3.94832C15.67 3.94832 16.6183 4.03082 16.895 4.06749V6.76749L15.2967 6.76832C14.0433 6.76832 13.8008 7.36416 13.8008 8.23749V10.165H16.79L16.4008 13.1833H13.8008V20.9275H18.8975C19.5058 20.9275 20 20.4333 20 19.8233V2.03166C20 1.42166 19.5058 0.92749 18.8958 0.92749Z" fill="white"/>
</svg>
