<svg width="24" height="24" viewBox="0 0 24 24" fill="none" xmlns="http://www.w3.org/2000/svg">
  <path fill-rule="evenodd" clip-rule="evenodd" d="M12.3072 22.4956C12.2052 22.4985 12.1028 22.5 12 22.5C9.69994 22.5 7.5726 21.7605 5.84282 20.5062L7.91603 19.124L8.25 18.9014V18.5V16.5V16.1893L8.03033 15.9697L5.26612 13.2055L6.33541 12.6708L6.64394 12.5166L6.72761 12.1819L7.22761 10.1819L7.40124 9.48735L6.71551 9.28163L2.30589 7.95874C3.88893 4.16577 7.63315 1.5 12 1.5C12.7848 1.5 13.5495 1.58611 14.2852 1.74939L11.4356 5.00612L11.0574 5.43826L11.376 5.91603L13.2036 8.65754L12.7646 10.8529L12.6175 11.5883L13.3529 11.7354L15.8529 12.2354L16.0715 12.2792L16.2785 12.1964L18.7785 11.1964L19.0433 11.0905L19.1708 10.8354L19.7055 9.76612L20.9697 11.0303L21.1893 11.25H21.5H22.4736C22.4911 11.4977 22.5 11.7478 22.5 12C22.5 13.5914 22.146 15.1001 21.5124 16.4517L20.5303 15.4697L20.1806 15.12L19.7215 15.3036L17.2215 16.3036L17.0052 16.3902L16.876 16.584L16.0562 17.8136L13.3767 18.2602L12.8251 18.3521L12.7558 18.907L12.3072 22.4956ZM13.8384 22.3396C16.7164 21.8314 19.19 20.1508 20.7482 17.8089L19.8194 16.88L17.9948 17.6098L17.124 18.916L16.9438 19.1864L16.6233 19.2398L14.1749 19.6479L13.8384 22.3396ZM6.75 18.0986L4.65006 19.4986C2.7061 17.5929 1.5 14.9373 1.5 12C1.5 11.096 1.61424 10.2187 1.82906 9.38174L5.59876 10.5126L5.35606 11.4834L3.66459 12.3292L2.73388 12.7945L3.46967 13.5303L6.75 16.8107V18.0986ZM22.2584 9.75H21.8107L20.0303 7.96967L19.2945 7.23388L18.8292 8.16459L17.9567 9.90954L15.9285 10.7208L14.3825 10.4117L14.7354 8.64709L14.7964 8.34246L14.624 8.08397L12.9426 5.56174L15.8569 2.23102C19.0704 3.50079 21.5074 6.31029 22.2584 9.75ZM24 12C24 18.6274 18.6274 24 12 24C5.37258 24 0 18.6274 0 12C0 5.37258 5.37258 0 12 0C18.6274 0 24 5.37258 24 12Z" fill="#000000"/>
</svg>
