<?xml version="1.0" encoding="UTF-8"?>
<svg width="24" height="24" fill="none" version="1.1" viewBox="0 0 24 24" xmlns="http://www.w3.org/2000/svg">
 <path d="m24.043 5.0015c0 0.56815-0.46061 1.0288-1.0288 1.0288h-21.947c-0.56815 0-1.0288-0.46061-1.0288-1.0288 0-0.56815 0.46061-1.0288 1.0288-1.0288h21.947c0.56815 0 1.0288 0.46061 1.0288 1.0288zm0 6.8584c0 0.56815-0.46061 1.0288-1.0288 1.0288h-21.947c-0.56815 0-1.0288-0.46061-1.0288-1.0288s0.46061-1.0288 1.0288-1.0288h21.947c0.56815 0 1.0288 0.46061 1.0288 1.0288zm-1.0288 7.8872c0.56815 0 1.0288-0.46061 1.0288-1.0288 0-0.56815-0.46061-1.0288-1.0288-1.0288h-21.947c-0.56815 0-1.0288 0.46061-1.0288 1.0288 0 0.56815 0.46061 1.0288 1.0288 1.0288z" clip-rule="evenodd" fill="#000000" fill-rule="evenodd" stroke-width="1.3717"/>
</svg>
