<svg width="20" height="21" viewBox="0 0 20 21" fill="none"
  xmlns="http://www.w3.org/2000/svg">
  <path fill-rule="evenodd" clip-rule="evenodd" d="M17.7778 20.9275H2.22222C0.994923 20.9275 0 19.9326 0 18.7053V3.14971C0 1.92241 0.994923 0.92749 2.22222 0.92749H17.7778C19.0051 0.92749 20 1.92241 20 3.14971V18.7053C20 19.9326 19.0051 20.9275 17.7778 20.9275ZM14.2544 18.1497H17.2223V12.0528C17.2223 9.47317 15.76 8.22587 13.7175 8.22587C11.674 8.22587 10.814 9.81718 10.814 9.81718V8.52007H7.95378V18.1497H10.814V13.0947C10.814 11.7403 11.4375 10.9343 12.6308 10.9343C13.7278 10.9343 14.2544 11.7088 14.2544 13.0947V18.1497ZM2.77786 5.4822C2.77786 6.4635 3.56732 7.25915 4.54156 7.25915C5.51581 7.25915 6.3048 6.4635 6.3048 5.4822C6.3048 4.50091 5.51581 3.70526 4.54156 3.70526C3.56732 3.70526 2.77786 4.50091 2.77786 5.4822ZM6.04713 18.1497H3.06468V8.52007H6.04713V18.1497Z" fill="white"/>
</svg>
