<?xml version="1.0" encoding="UTF-8"?>
<svg version="1.1" viewBox="0 0 222 44" xmlns="http://www.w3.org/2000/svg">
  <path transform="translate(0,2)" d="m40 13.468c1e-4 -2.686-0.8109-5.3094-2.327-7.5266-1.5161-2.2172-3.6665-3.9248-6.1695-4.8992-2.503-0.97437-5.242-1.1701-7.858-0.56143-2.6162 0.60862-4.9875 1.9932-6.8034 3.9723h-16.842v35.547h35.56v-16.613c1.3956-1.2483 2.5125-2.7769 3.2776-4.4861 0.765-1.7092 1.1611-3.5603 1.1623-5.4329zm-6.8421 0c0.0027 1.287-0.3765 2.546-1.0896 3.6175-0.7132 1.0714-1.7281 1.9073-2.9165 2.4016-1.1884 0.4945-2.4966 0.6253-3.7594 0.3757-1.2626-0.2494-2.4229-0.8678-3.334-1.777-0.911-0.9092-1.5318-2.0682-1.7839-3.3304-0.2521-1.2621-0.124-2.5707 0.3679-3.76 0.4919-1.1894 1.3256-2.2061 2.3955-2.9215 1.0701-0.71535 2.3282-1.0972 3.6153-1.0972 1.7228 0 3.3753 0.68347 4.5947 1.9004 1.2196 1.217 1.9065 2.868 1.91 4.5908zm-4.44 19.69h-21.876v-21.862h6.6667c-0.1288 0.7173-0.1965 1.4442-0.2025 2.1728 0.0037 3.5387 1.411 6.9314 3.9133 9.4337 2.5021 2.5022 5.8948 3.9096 9.4336 3.9131 0.6919-0.0036 1.3823-0.0623 2.0647-0.1754v6.5182z" fill="#394149"/>
  <path transform="translate(46,1)" d="m24.51 34h-16.2v-25.46h5.21v21.14h10.99v4.32zm9.74 0.38q-2.87 0-4.98-1.24-2.1-1.24-3.23-3.46-1.14-2.21-1.14-5.15 0-2.97 1.14-5.18 1.13-2.22 3.23-3.46 2.11-1.24 4.98-1.24 2.89 0 4.98 1.24t3.23 3.46q1.14 2.21 1.14 5.18 0 2.94-1.14 5.15-1.14 2.22-3.23 3.46t-4.98 1.24zm0-4.04q1.36 0 2.29-0.76 0.92-0.76 1.38-2.08 0.46-1.33 0.46-2.98 0-1.7-0.46-3.01-0.46-1.32-1.38-2.07-0.93-0.75-2.29-0.75-1.37 0-2.28 0.75-0.92 0.75-1.38 2.07-0.46 1.31-0.46 3.01 0 1.65 0.46 2.98 0.46 1.32 1.38 2.08 0.91 0.76 2.28 0.76zm19.12 11.21q-2.38 0-4.15-0.6-1.78-0.61-2.89-1.67t-1.54-2.41l4.41-1.23q0.24 0.53 0.74 1.03 0.51 0.51 1.34 0.83 0.84 0.33 2.07 0.33 1.97 0 3.09-0.9t1.12-2.79v-3.52h-0.4q-0.34 0.77-0.99 1.48-0.65 0.72-1.7 1.17-1.05 0.46-2.6 0.46-2.16 0-3.92-1.01t-2.81-3.08-1.05-5.23q0-3.23 1.07-5.4t2.83-3.26q1.77-1.1 3.89-1.1 1.61 0 2.7 0.54 1.1 0.54 1.77 1.35 0.68 0.81 1.02 1.57h0.22v-3.22h5.04v18.96q0 2.58-1.19 4.29-1.18 1.72-3.27 2.57-2.08 0.84-4.8 0.84zm0.1-11.72q1.32 0 2.23-0.65 0.92-0.65 1.39-1.87 0.48-1.22 0.48-2.93 0-1.69-0.48-2.96-0.47-1.26-1.39-1.96-0.91-0.7-2.23-0.7-1.35 0-2.26 0.72-0.92 0.73-1.39 1.99-0.47 1.27-0.47 2.91 0 1.67 0.47 2.9 0.47 1.22 1.4 1.88 0.92 0.67 2.25 0.67zm19.81 4.55q-2.87 0-4.98-1.24-2.1-1.24-3.24-3.46-1.13-2.21-1.13-5.15 0-2.97 1.13-5.18 1.14-2.22 3.24-3.46 2.11-1.24 4.98-1.24 2.88 0 4.98 1.24 2.09 1.24 3.23 3.46 1.13 2.21 1.13 5.18 0 2.94-1.13 5.15-1.14 2.22-3.23 3.46-2.1 1.24-4.98 1.24zm0-4.04q1.36 0 2.29-0.76 0.92-0.76 1.38-2.08 0.46-1.33 0.46-2.98 0-1.7-0.46-3.01-0.46-1.32-1.38-2.07-0.93-0.75-2.29-0.75-1.37 0-2.28 0.75-0.92 0.75-1.38 2.07-0.46 1.31-0.46 3.01 0 1.65 0.46 2.98 0.46 1.32 1.38 2.08 0.91 0.76 2.28 0.76zm15.77 3.66h-5.13v-19.11h5.13v19.11zm-2.57-21.6q-1.16 0-1.98-0.77t-0.82-1.86q0-1.1 0.82-1.87t1.98-0.77q1.17 0 2 0.77 0.82 0.76 0.82 1.87 0 1.09-0.82 1.86-0.83 0.77-2 0.77zm9.78 28.74h-5.13v-26.25h5.04v3.22h0.24q0.36-0.76 1.02-1.56t1.73-1.35q1.08-0.55 2.7-0.55 2.12 0 3.88 1.1 1.76 1.09 2.81 3.28 1.06 2.19 1.06 5.45 0 3.18-1.03 5.38-1.03 2.19-2.79 3.33-1.76 1.13-3.96 1.13-1.56 0-2.63-0.53-1.08-0.52-1.75-1.3-0.68-0.78-1.04-1.55h-0.15v10.2zm4-10.93q1.33 0 2.24-0.74 0.92-0.73 1.39-2.03t0.47-2.98q0-1.67-0.47-2.95t-1.38-2.02q-0.9-0.73-2.25-0.73-1.32 0-2.24 0.71-0.92 0.7-1.4 1.98-0.48 1.27-0.48 3.01 0 1.73 0.49 3.02 0.48 1.29 1.41 2.01 0.92 0.72 2.22 0.72zm18.25 4.17q-2.31 0-4.09-0.66-1.77-0.66-2.9-1.92-1.13-1.25-1.46-3.03l4.77-0.82q0.38 1.33 1.32 2t2.51 0.67q1.45 0 2.31-0.56 0.85-0.55 0.85-1.41 0-0.75-0.6-1.23-0.61-0.48-1.86-0.73l-3.3-0.69q-2.77-0.56-4.13-1.92-1.37-1.36-1.37-3.5 0-1.84 1.01-3.17 1.01-1.32 2.8-2.04 1.8-0.72 4.22-0.72 2.26 0 3.92 0.63 1.65 0.62 2.68 1.77 1.02 1.14 1.37 2.7l-4.55 0.8q-0.29-0.97-1.12-1.6-0.83-0.62-2.23-0.62-1.26 0-2.12 0.53-0.85 0.53-0.85 1.4 0 0.73 0.55 1.23 0.56 0.5 1.91 0.77l3.43 0.68q2.77 0.57 4.12 1.84t1.35 3.32q0 1.88-1.09 3.29-1.1 1.41-3.02 2.2t-4.43 0.79zm16.32-0.14q-1.99 0-3.47-0.86-1.49-0.87-2.3-2.48-0.81-1.62-0.81-3.86v-12.15h5.12v11.27q0 1.77 0.93 2.78 0.92 1.01 2.53 1.01 1.09 0 1.93-0.47 0.83-0.47 1.3-1.37 0.47-0.89 0.47-2.16v-11.06h5.13v19.11h-4.84l-0.06-4.77h0.29q-0.76 2.41-2.3 3.71-1.55 1.3-3.92 1.3zm18.06-0.24h-5.13v-19.11h4.75l0.26 4.75h-0.38q0.45-1.76 1.31-2.87t2.02-1.64q1.17-0.53 2.45-0.53 2.07 0 3.33 1.31 1.27 1.31 1.86 4.04h-0.59q0.42-1.83 1.39-3.01 0.96-1.19 2.29-1.76 1.32-0.58 2.78-0.58 1.76 0 3.13 0.77 1.38 0.77 2.17 2.22 0.8 1.44 0.8 3.52v12.89h-5.13v-11.91q0-1.63-0.88-2.41-0.88-0.79-2.16-0.79-0.96 0-1.67 0.42t-1.09 1.17q-0.39 0.75-0.39 1.76v11.76h-4.95v-12.05q0-1.4-0.83-2.23t-2.15-0.83q-0.9 0-1.63 0.41-0.72 0.41-1.14 1.21-0.42 0.79-0.42 1.94v11.55z" fill="#111"/>
</svg>
