<svg width="1248.9" height="836.87" fill="none" version="1.1" viewBox="0 0 1248.9 836.87" xmlns="http://www.w3.org/2000/svg">
 <g transform="translate(-123.56 .37502)" stroke="#A6AFBB" stroke-linecap="round" stroke-linejoin="round" stroke-width=".75">
  <path d="m748.03-2.4937e-5v836.12" opacity=".9"/>
  <path d="m123.94 418.02h624.09" opacity=".9"/>
  <path d="m123.94 418.02 624.09 69.734" opacity=".9"/>
  <path d="m123.94 418.02 624.09 139.39" opacity=".9"/>
  <path d="m123.94 418.02 624.09 209.05" opacity=".9"/>
  <path d="m123.94 418.02 624.09 278.7" opacity=".9"/>
  <path d="m123.94 418.02 624.09 348.36" opacity=".9"/>
  <path d="m123.94 418.02 624.09 418.02" opacity=".9"/>
  <path d="m123.94 418.02h624.09" opacity=".9"/>
  <path d="m123.94 418.02 624.09-69.656" opacity=".9"/>
  <path d="m123.94 418.02 624.09-139.31" opacity=".9"/>
  <path d="m123.94 418.02 624.09-208.97" opacity=".9"/>
  <path d="m123.94 418.02 624.09-278.63" opacity=".9"/>
  <path d="m123.94 418.02 624.09-348.36" opacity=".9"/>
  <path d="M 123.94,418.02 748.03,0" opacity=".9"/>
  <path d="m1372.1 418.02h-624.09" opacity=".9"/>
  <path d="m1372.1 418.02-624.09 69.734" opacity=".9"/>
  <path d="m1372.1 418.02-624.09 139.39" opacity=".9"/>
  <path d="m1372.1 418.02-624.09 209.05" opacity=".9"/>
  <path d="m1372.1 418.02-624.09 278.7" opacity=".9"/>
  <path d="m1372.1 418.02-624.09 348.36" opacity=".9"/>
  <path d="m1372.1 418.02-624.09 418.02" opacity=".9"/>
  <path d="m1372.1 418.02h-624.09" opacity=".9"/>
  <path d="m1372.1 418.02-624.09-69.656" opacity=".9"/>
  <path d="m1372.1 418.02-624.09-139.31" opacity=".9"/>
  <path d="m1372.1 418.02-624.09-208.97" opacity=".9"/>
  <path d="m1372.1 418.02-624.09-278.63" opacity=".9"/>
  <path d="m1372.1 418.02-624.09-348.36" opacity=".9"/>
  <path d="M 1372.1,418.02 748.01,0" opacity=".9"/>
 </g>
</svg>
